<?xml version="1.0" encoding="utf-8"?>
<!-- Generator: Adobe Illustrator 16.0.0, SVG Export Plug-In . SVG Version: 6.00 Build 0)  -->
<!DOCTYPE svg PUBLIC "-//W3C//DTD SVG 1.1//EN" "http://www.w3.org/Graphics/SVG/1.1/DTD/svg11.dtd">
<svg version="1.1" id="Layer_1" xmlns="http://www.w3.org/2000/svg" xmlns:xlink="http://www.w3.org/1999/xlink" x="0px" y="0px"
	 width="230.4px" height="144px" viewBox="0 0 230.4 144" enable-background="new 0 0 230.4 144" xml:space="preserve">
<linearGradient id="SVGID_1_" gradientUnits="userSpaceOnUse" x1="101.6675" y1="71.5801" x2="129.1289" y2="71.5801">
	<stop  offset="0" style="stop-color:#F4BF33"/>
	<stop  offset="1" style="stop-color:#FFE996"/>
</linearGradient>
<path fill="url(#SVGID_1_)" stroke="#231F20" stroke-width="1.1319" stroke-linecap="round" stroke-linejoin="round" stroke-miterlimit="10" d="
	M113.369,61.037c1.115-3.429,2.941-3.429,4.057,0c1.115,3.43,4.978,6.236,8.584,6.236c3.605,0,4.169,1.734,1.252,3.858
	c-2.918,2.123-4.393,6.664-3.279,10.094c1.114,3.43-0.361,4.502-3.279,2.382c-2.917-2.12-7.693-2.12-10.611,0
	s-4.393,1.048-3.277-2.382c1.113-3.43-0.361-7.971-3.279-10.094c-2.918-2.124-2.354-3.858,1.252-3.858
	C108.393,67.272,112.256,64.466,113.369,61.037z"/>
</svg>
