<?xml version="1.0" encoding="utf-8"?>
<!-- Generator: Adobe Illustrator 16.0.0, SVG Export Plug-In . SVG Version: 6.00 Build 0)  -->
<!DOCTYPE svg PUBLIC "-//W3C//DTD SVG 1.1//EN" "http://www.w3.org/Graphics/SVG/1.1/DTD/svg11.dtd">
<svg version="1.1" id="Layer_1" xmlns="http://www.w3.org/2000/svg" xmlns:xlink="http://www.w3.org/1999/xlink" x="0px" y="0px"
	 width="230.4px" height="144px" viewBox="0 0 230.4 144" enable-background="new 0 0 230.4 144" xml:space="preserve">
<linearGradient id="SVGID_1_" gradientUnits="userSpaceOnUse" x1="382.6641" y1="-162.0156" x2="410.125" y2="-162.0156" gradientTransform="matrix(1 0 0 -1 -280.7998 -90)">
	<stop  offset="0" style="stop-color:#F4BF33"/>
	<stop  offset="1" style="stop-color:#FFE996"/>
</linearGradient>
<path fill="url(#SVGID_1_)" d="M113.563,61.473c-1.113,3.429-4.976,6.235-8.58,6.236c-3.605,0-4.17,1.734-1.252,3.858
	c2.918,2.123,4.393,6.664,3.279,10.094c-1.116,3.43,0.358,4.502,3.276,2.383c1.459-1.061,3.384-1.591,5.308-1.591V58.901
	C114.858,58.899,114.121,59.756,113.563,61.473z"/>
<path fill="none" stroke="#231F20" stroke-width="1.1319" stroke-linecap="round" stroke-linejoin="round" stroke-miterlimit="10" d="
	M113.563,61.473c1.115-3.429,2.943-3.429,4.058,0c1.115,3.43,4.979,6.236,8.584,6.236s4.17,1.734,1.253,3.858
	c-2.919,2.123-4.394,6.664-3.279,10.094s-0.361,4.502-3.279,2.383c-2.917-2.121-7.694-2.121-10.613,0
	c-2.918,2.119-4.393,1.047-3.276-2.383c1.113-3.43-0.361-7.971-3.279-10.094c-2.918-2.124-2.354-3.858,1.252-3.858
	C108.587,67.708,112.45,64.901,113.563,61.473z"/>
</svg>
