<?xml version="1.0" ?><!DOCTYPE svg  PUBLIC '-//W3C//DTD SVG 1.1//EN'  'http://www.w3.org/Graphics/SVG/1.1/DTD/svg11.dtd'><svg enable-background="new 0 0 128 128" height="128px" id="Layer_1" version="1.1" viewBox="0 0 128 128" width="128px" xml:space="preserve" xmlns="http://www.w3.org/2000/svg" xmlns:xlink="http://www.w3.org/1999/xlink"><g><path d="M24.866,51.216c-0.013,0.036-0.023,0.067-0.023,0.088C24.843,51.357,24.851,51.316,24.866,51.216z" fill="#1F140F"/><path d="M106.927,103.065c0,0-1.481-1.185-2.592-2.073c-1.111-0.889-3.702-1.407-5.628-1.925   c-1.925-0.518-2.814,0.074-2.37-0.37s1.777-0.296,1.777-0.296s-0.444-0.222-1.629-0.518c-1.185-0.296-2.888,0-3.999,0   c-1.111,0-2.888,0.222-4.295,0.592c-1.407,0.37-1.777,0.518-1.111,0c0.666-0.518,1.111-0.815,1.111-0.815s-1.555-0.148-2.814,0.074   c-1.259,0.222-1.703,1.333-1.703,1.333s-1.111-0.222-1.111-0.444c0-0.222,0.741-0.889,0.741-0.889s-1.333,0.37-2.296,1.037   c-0.963,0.666-2.37,0-2.37,0s0.222-0.889,0-4.517c-0.222-3.628-2.444-11.033-5.554-17.92c-3.11-6.887-9.923-13.255-12.144-15.624   c-2.221-2.37-5.406-5.035-5.406-5.035s0.074-2.221-0.592-3.258c-0.666-1.037-1.555-0.889-3.036-3.258   c-1.481-2.37-0.889-3.036-0.889-3.036s1.407-0.592,1.999-1.407c0.592-0.815-0.444-2.814-1.481-3.999   c-1.037-1.185-2.444-3.851-2.37-5.183c0.074-1.333-1.037-5.776-1.777-7.109c-0.741-1.333-3.258-3.184-4.295-4.443   c-1.037-1.259-2.814-7.331-2.814-7.331s-0.333-0.333-0.518-0.666c-0.185-0.333-0.444-0.222-1.222,0   c-0.778,0.222-1.703,0.926-2.925,1.925c-1.222,1-1.518,2.37-1.518,2.851c0,0.481-0.037,2.221,0.407,3.295   c0.444,1.074-0.111,1.629-0.111,1.629s-0.926,0.111-1.629,0.037c-0.703-0.074-1.185-0.629-1.444-0.963s-0.555-1.999-0.703-2.851   c-0.148-0.852-0.741-0.555-0.741-0.555s-0.778,0.555-1.333,1.814c-0.555,1.259-0.148,2.814,0.259,4.628   c0.407,1.814,0.926,3.073,1.185,5.48c0.259,2.407-0.111,1.999-0.518,2.777c-0.407,0.778-1.296,1.814-1.814,2.444   c-0.518,0.629-0.852,1.296-0.703,1.185c0.148-0.111,0.666,0.111,0.666,0.111l0.074,0.741c0,0-0.592,0.666-0.926,0.963   c-0.333,0.296-0.592,1.037-0.296,0.926c0.296-0.111,0.703,0.148,0.703,0.148s-0.37,0.407-0.629,0.741   c-0.259,0.333-0.555,0.963-0.555,0.963s0.333-0.037,0.629-0.222c0.296-0.185,1.148,0.222,1,0.481   c-0.148,0.259-1.851,3.369-2.221,4.221c-0.296,0.681-0.473,2.068-0.533,2.466c0.151-0.408,1.088-1.689,1.088-1.689   s-0.778,3.48-0.963,4.554c-0.185,1.074-0.111,2.444-0.111,2.444s0.148-0.185,0.259-0.592c0.111-0.407,0.518-0.926,0.518-0.926   s0.074,1.999,0.333,3.517c0.259,1.518,1.055,3.388,1.055,3.388s0,1.611,0,3.832s0.056,3.999,1.055,6.054s2.166,5.165,2.11,5.498   c-0.056,0.333-0.333,4.11-0.333,10.996c0,6.887-0.944,10.719-1.888,12.885c-0.944,2.166-1.777,2.277-1.777,2.277   s-2.388-0.222-2.888-0.111c-0.5,0.111-1.999,1.611-2.777,2.499s-0.444,1.555,0,2.055c0.444,0.5,1.166,0.666,1.944,0.666   s1.944,0.056,1.944,0.056s-1.444,1.5-1.611,2.221c-0.167,0.722,0.722,0.611,0.722,0.611s1.055,0.111,1.5,0.599   c0.444,0.488,3.443-0.211,4.887-0.044c1.444,0.167,1.388-0.167,1.888-0.529c0.342-0.248,1.179-0.361,1.944-1.249   c0.353-0.41,0.628-1.345,0.944-1.888c0.198-0.342,0.66-1.62,1.333-2.61c0.578-0.851,1.328-1.29,2.018-3.036   c0.98-2.481,1.762-6.549,2.666-9.33c1.45-4.461,2.814-7.257,2.814-7.257s0.154,0.301,0.588,0.869   c-0.004,0.313-0.002,0.676,0.023,0.983c0.056,0.694,0.444,0.833,0.444,0.833s-0.193-0.751,0.167-1.042c0,0,0.001,0,0.001,0   c0.214,0.245,0.459,0.515,0.745,0.812c0.041,0.364,0.088,0.778,0.115,1.008c0.056,0.472,0.278,0.778,0.278,0.778   s0.083-0.778,0.444-0.694c0.062,0.014,0.149,0.029,0.242,0.043c0.006,0.024,0.011,0.045,0.017,0.07   c0.389,1.583,1,1.916,1.305,2.166c0.305,0.25,1.388,0.417,1.388,0.417s-0.264-0.494-0.467-1.009   c0.62,0.345,1.109,0.496,1.471,0.552c-0.093,0.568-0.195,1.061-0.291,1.234c-0.278,0.5-0.606,2.943,0.255,4.387   c0.861,1.444,1.495,2.471,1.995,2.999c0.5,0.528,2.138,2.694,2.138,2.694s-1.694-0.222-2.166-0.167c-0.472,0.056-1.055,0-1.139,0   c-0.083,0-2.138,0.583-2.805,0.889c-0.666,0.305-0.972,1.027-1.638,1.527c-0.666,0.5-0.5,2.138-0.5,2.416   c0,0.102,0.265,0.166,0.6,0.207c-0.819,0.844-0.855,1.311-0.6,1.82c0.278,0.555,0.944,1.055,1.333,1.111   c0.389,0.056,1.444,0.666,2.444,0.407c1-0.259,1.888-0.074,1.888-0.074s0.833,0.167,1.944,0s5.22-0.389,9.775-0.778   c4.554-0.389,5.165-1.166,5.387-1.432c0.222-0.266,0-2.178,0-2.178s0.611,1,0.833,1.166c0.222,0.167,1.277,1.055,2.555,1.01   s2.943-0.121,3.499-0.621c0.555-0.5,0.907-1.222,0.907-1.222s1.703,0.148,3.406,0.592c1.703,0.444,2.147,1.037,3.554,1.185   c1.407,0.148,4.813,0,4.813,0l-0.444-0.741c0,0,0.592,0,1.629,0c1.037,0,1.555-0.558,1.555-0.558s-1.259-0.405-0.889-0.405   c0.37,0,4.591,0.222,6.442,0.37c1.851,0.148,7.479-0.222,8.59-0.37c1.111-0.148,2.296-0.296,2.518-1.555   C108.112,104.546,106.927,103.065,106.927,103.065z" fill="#1F140F"/></g></svg>