<?xml version="1.0" encoding="utf-8"?>
<!DOCTYPE svg  PUBLIC '-//W3C//DTD SVG 1.1//EN'  'http://www.w3.org/Graphics/SVG/1.1/DTD/svg11.dtd'>
<svg version="1.1" viewBox="0 0 576 576" style="enable-background:new 0 0 576 576;" xml:space="preserve" xmlns="http://www.w3.org/2000/svg" xmlns:xlink="http://www.w3.org/1999/xlink">
    <style type="text/css">
          .st0{fill:#FFFFFF;}
    </style>
    <path d="M575.9,282.6V0.1H-0.1v575.9h576L575.9,282.6L575.9,282.6z M271.9,558.3H17.6v-258h254.3V558.3z M272,275.8H17.6v-258H272V275.8z M297.8,17.7h260.4v258H297.8V17.7z M558.2,558.3H299v-258h259.3V558.3z"/>
    <rect x="17.6" y="17.7" class="st0" width="254.4" height="258"/>
    <rect x="297.8" y="17.7" class="st0" width="260.4" height="258"/>
    <rect x="17.6" y="300.2" class="st0" width="254.3" height="258"/>
    <rect x="299" y="300.2" class="st0" width="259.3" height="258"/>
    <path d="M132.8,35.5c28.7-9.2,63.5,3,70.1,42.1c0.8,4.7,1,9.6,1.2,14.4c0.2,6.5-0.1,13-0.1,19.5c0.2,18,2.5,35.4,14.2,50.3c-13.5,7.5-27.5,6.2-41.4,3.8c-1.9,13.6,1.5,23,11.2,30.4c3.4,2.6,7.4,4.5,11.3,6.3c7.8,3.7,15.9,6.8,23.6,10.9c16.3,8.7,33.1,17.1,39.2,36.8c0,5.3,0,10.7,0,16c-75.7,0-151.3,0-227,0c0-5.3,0-10.7,0-16c4.3-14.4,14.9-23.3,27.4-30.2c8.9-4.9,18.1-9.2,27.2-13.8c6.7-3.4,13.7-6.3,19.9-10.3c9.8-6.2,14.2-19.6,10.8-30.1c-22.3,3.9-30.9,1.6-41.2-4c10.8-17.9,13.7-28.4,13.9-50c0.1-7.7-0.2-15.3,0-23C93.7,60.8,111.6,42.3,132.8,35.5z"/>
    <path d="M415.1,312.3c2.3-0.9,4.6-1.6,7-2.1c28.7-6.6,57.3,16.1,63.4,43.8c0.2,0.9,0.4,1.7,0.5,2.6c0.8,4.7,1,9.6,1.2,14.4c0.2,6.5-0.1,13-0.1,19.5c0.2,18,2.5,35.4,14.2,50.3c-13.5,7.5-27.5,6.2-41.4,3.8c-1.9,13.6,1.5,23,11.2,30.4c3.4,2.6,7.4,4.5,11.3,6.3c7.8,3.7,15.9,6.8,23.6,10.9c16.3,8.7,33.1,17.1,39.2,36.8c0,5.3,0,10.7,0,16c-75.7,0-151.3,0-227,0c0-5.3,0-10.7,0-16c4.3-14.4,14.9-23.3,27.4-30.2c8.9-4.9,18.1-9.2,27.2-13.8c6.7-3.4,13.7-6.3,19.9-10.3c9.8-6.2,14.2-19.6,10.8-30.1c-22.3,3.9-30.9,1.6-41.2-4c10.8-17.9,13.7-28.4,13.9-50c0.1-7.7-0.2-15.3,0-23C376.6,344,392.9,320.8,415.1,312.3z"/>
    <path d="M428,30c1.7,0,3.3,0,5,0c3.9,0.6,7.8,1.1,11.7,1.9c13.4,2.7,23.5,9.8,29.6,22.2c3.9,7.8,5.3,16,5.2,24.7c-0.1,3.8,0,7.6,0,11.4c0.7,0.2,1.1,0.4,1.6,0.5c4.3,1,5,1.7,5.1,5.9c0.1,2,0,4-0.2,6c-0.8,7.5-2.7,14.5-9.4,19c-1.6,1.1-1.7,2.7-1.8,4.4c-0.7,10.3-2.6,20.3-9.5,28.4c-4.6,5.5-5.2,11.6-5,18.1c0.1,2.3,0.4,4.6,0.4,7c0.1,6.1,2.9,10.6,8,13.5c4,2.3,8.3,4.3,12.6,6.1c6.3,2.5,12.8,4.6,19.2,7.1c9.8,3.8,19.3,8.2,27.8,14.5c7.7,5.7,12.6,13.1,14.9,22.4c0.5,2.1,1.2,4.1,1.7,6.2c0,5.7,0,11.3,0,17c-76.3,0-152.7,0-229,0c0-5.7,0-11.3,0-17c0.2-0.4,0.6-0.8,0.7-1.3c2.1-15.1,10.8-25.5,24-32.4c6.5-3.4,13.1-6.5,19.9-9.3c6.6-2.8,13.5-4.8,20.1-7.5c4.4-1.8,8.8-4.1,12.8-6.6c4.2-2.6,6.5-6.7,6.6-11.7c0.1-5,0.1-10,0.3-15c0.1-3-0.9-5.4-2.7-7.8c-6.5-8.5-10.8-17.9-11.3-28.8c0-1.2,0-2.4-0.4-3.5c-0.4-1.3-0.9-3-1.9-3.8c-8.8-6.7-9.4-16.4-9.3-26.2c0-2.4,1.3-4,3.8-4.6c0.9-0.2,1.9-0.5,3-0.8c0-3.2,0-6.1,0-9.1c0.1-3.7,0-7.3,0.4-11c2.2-20.4,15.5-34.5,35.8-38.2C421.2,31,424.6,30.5,428,30z"/>
    <path d="M146,309c1.7,0,3.3,0,5,0c1.5,0.3,2.9,0.7,4.4,0.8c24,1.9,39.4,16.7,41.7,40.6c0.6,6.1,0.1,12.3,0.1,17c2.9,2.5,6.4,4.1,6.6,5.9c0.8,9.6,0.3,19-7.8,26.2c-1.5,1.4-3,3.7-3.1,5.7c-0.7,12.1-4.8,22.7-12.1,32.2c-1.1,1.4-2,3.2-2.1,4.9c-0.9,24-0.9,27.4,22.3,36.4c9.5,3.7,19,7.1,28.4,11.1c17.1,7.3,30.2,18.2,33.4,37.8c0,0.2,0.1,0.3,0.2,0.5c0,5.7,0,11.3,0,17c-76.3,0-152.7,0-229,0c0-5.7,0-11.3,0-17c0.3-1.1,0.8-2.2,1-3.3c2.4-12.1,8.7-21.7,19.5-27.7c8.8-4.9,18.1-9.1,27.4-13.2c7.9-3.5,16.2-6.1,24.1-9.5c8.1-3.4,12.8-9.3,12.4-18.6c-0.2-4,0.2-8-0.1-12c-0.2-2.2-0.9-4.7-2.2-6.4c-7.4-9.7-11.6-20.5-12.1-32.7c-0.1-1.5-0.8-3.4-1.9-4.2c-7.4-5.4-8.7-13.4-9.4-21.7c-0.4-5.1-0.1-9.7,6.7-9.6c0-4.4,0.1-8.4,0-12.3c-0.5-22.5,11.9-40,32.4-45.4C136.4,310.2,141.3,309.8,146,309z"/>
</svg>
